<svg width="74" height="74" viewBox="0 0 74 74" fill="none" xmlns="http://www.w3.org/2000/svg">
<g clip-path="url(#clip0_309_93)">
<path d="M14.389 49.3333C18.4117 49.3333 21.8568 51.6664 23.5465 55.0313L30.6936 51.4567C27.7254 45.3414 21.4724 41.1111 14.2163 41.1111C11.6296 41.1117 9.0726 41.6631 6.71558 42.7288L10.1442 50.2727C11.4754 49.6587 12.9231 49.3383 14.389 49.3333ZM59.6112 49.3333C62.6267 49.3333 65.3092 50.655 67.1921 52.7209L73.147 47.3045C71.4329 45.3578 69.3238 43.7986 66.9601 42.7307C64.5964 41.6628 62.0323 41.1107 59.4385 41.1111C52.0879 41.1111 45.765 45.4504 42.844 51.6972L50.3427 55.2369C51.9912 51.7589 55.5062 49.3333 59.6112 49.3333Z" fill="#EA596E"/>
<path d="M14.3889 45.2222C12.4993 45.2222 10.6282 45.5943 8.8825 46.3175C7.13676 47.0406 5.55054 48.1004 4.21441 49.4366C2.87828 50.7727 1.8184 52.3589 1.09529 54.1047C0.372179 55.8504 0 57.7215 0 59.6111C0 61.5006 0.372179 63.3717 1.09529 65.1174C1.8184 66.8632 2.87828 68.4494 4.21441 69.7855C5.55054 71.1217 7.13676 72.1815 8.8825 72.9047C10.6282 73.6278 12.4993 73.9999 14.3889 73.9999C18.2051 73.9999 21.8649 72.484 24.5634 69.7855C27.2618 67.0871 28.7778 63.4272 28.7778 59.6111C28.7778 55.7949 27.2618 52.135 24.5634 49.4366C21.8649 46.7381 18.2051 45.2222 14.3889 45.2222ZM14.3889 69.8888C11.6631 69.8888 9.04886 68.806 7.1214 66.8785C5.19395 64.9511 4.11111 62.3369 4.11111 59.6111C4.11111 56.8852 5.19395 54.271 7.1214 52.3436C9.04886 50.4161 11.6631 49.3333 14.3889 49.3333C17.1147 49.3333 19.7289 50.4161 21.6564 52.3436C23.5838 54.271 24.6667 56.8852 24.6667 59.6111C24.6667 62.3369 23.5838 64.9511 21.6564 66.8785C19.7289 68.806 17.1147 69.8888 14.3889 69.8888ZM59.6111 45.2222C55.7947 45.2224 52.1346 46.7388 49.4362 49.4376C46.7378 52.1364 45.222 55.7967 45.2222 59.6131C45.2225 63.4296 46.7388 67.0896 49.4377 69.788C52.1365 72.4865 55.7967 74.0023 59.6132 74.002C61.5029 74.0019 63.3741 73.6295 65.1199 72.9062C66.8657 72.183 68.4519 71.1229 69.7881 69.7866C71.1242 68.4502 72.184 66.8638 72.9071 65.1179C73.6301 63.372 74.0022 61.5008 74.0021 59.6111C74.0019 57.7213 73.6296 55.8502 72.9063 54.1044C72.183 52.3585 71.1229 50.7723 69.7866 49.4361C68.4503 48.1 66.8639 47.0402 65.118 46.3171C63.3721 45.5941 61.5008 45.222 59.6111 45.2222ZM59.6111 69.8888C56.8853 69.8888 54.2711 68.806 52.3436 66.8785C50.4162 64.9511 49.3333 62.3369 49.3333 59.6111C49.3333 56.8852 50.4162 54.271 52.3436 52.3436C54.2711 50.4161 56.8853 49.3333 59.6111 49.3333C62.3369 49.3333 64.9511 50.4161 66.8786 52.3436C68.8061 54.271 69.8889 56.8852 69.8889 59.6111C69.8889 62.3369 68.8061 64.9511 66.8786 66.8785C64.9511 68.806 62.3369 69.8888 59.6111 69.8888Z" fill="#292F33"/>
<path d="M61.6337 59.4508C61.6204 59.3127 61.5929 59.1763 61.5515 59.0438C61.5155 58.9119 61.4666 58.7839 61.4056 58.6615C61.3789 58.6122 61.3748 58.5546 61.346 58.5073L46.9571 35.8962C46.8122 35.6683 46.6238 35.4712 46.4027 35.3161C46.1816 35.1611 45.9321 35.0511 45.6685 34.9925C45.4049 34.9339 45.1323 34.9278 44.8663 34.9746C44.6003 35.0214 44.3462 35.1201 44.1184 35.2652C43.8313 35.4525 43.5967 35.71 43.4366 36.0131C43.2766 36.3163 43.1964 36.6552 43.2036 36.998H24.6666C24.1215 36.998 23.5986 37.2145 23.2131 37.6C22.8277 37.9855 22.6111 38.5084 22.6111 39.0535C22.6111 39.5987 22.8277 40.1215 23.2131 40.507C23.5986 40.8925 24.1215 41.1091 24.6666 41.1091H45.2222C45.2777 41.1091 45.325 41.0803 45.3805 41.0762L55.8659 57.5556H37C36.4548 57.5556 35.932 57.7722 35.5465 58.1577C35.161 58.5431 34.9444 59.066 34.9444 59.6112C34.9444 60.1563 35.161 60.6792 35.5465 61.0647C35.932 61.4501 36.4548 61.6667 37 61.6667H59.6131C59.9282 61.6597 60.2375 61.581 60.5176 61.4365C60.5813 61.4015 60.6533 61.3872 60.717 61.346C60.7786 61.3049 60.8156 61.2412 60.8711 61.198C61.0835 61.0324 61.2591 60.8245 61.3871 60.5875C61.4488 60.4724 61.5001 60.3614 61.5412 60.234C61.583 60.0995 61.6106 59.961 61.6235 59.8208C61.6317 59.7468 61.6666 59.6852 61.6666 59.6112C61.6666 59.5557 61.6379 59.5063 61.6337 59.4508Z" fill="#DD2E44"/>
<path d="M44.3609 32.8889L38.4018 49.5739L26.2145 35.6475C26.0377 35.4409 25.8217 35.2715 25.579 35.149C25.3364 35.0265 25.0718 34.9533 24.8007 34.9338C24.5295 34.9142 24.2572 34.9486 23.9994 35.035C23.7417 35.1214 23.5036 35.2581 23.2991 35.4371C23.0945 35.6161 22.9274 35.8339 22.8076 36.078C22.6878 36.322 22.6176 36.5873 22.601 36.8587C22.5844 37.13 22.6218 37.4019 22.7111 37.6587C22.8003 37.9155 22.9396 38.152 23.1208 38.3546L36.8191 54.0077L35.0636 58.9205C34.8804 59.434 34.9088 59.9993 35.1424 60.492C35.376 60.9846 35.7957 61.3643 36.3093 61.5475C36.8228 61.7306 37.3881 61.7023 37.8808 61.4687C38.3734 61.2351 38.7531 60.8154 38.9363 60.3018L48.7269 32.8889H44.3609Z" fill="#DD2E44"/>
<path d="M14.3888 61.6667C14.0388 61.6661 13.6946 61.5762 13.389 61.4054C13.0835 61.2346 12.8266 60.9886 12.6427 60.6906C12.4589 60.3927 12.3541 60.0528 12.3385 59.7031C12.3228 59.3534 12.3967 59.0054 12.5532 58.6923L18.8473 46.1411C18.8823 46.0835 22.6111 40.3937 22.6111 34.9444C22.6111 28.2803 17.8977 26.6338 17.8504 26.6174C17.591 26.5346 17.3507 26.4012 17.1433 26.2248C16.936 26.0485 16.7657 25.8326 16.6424 25.5899C16.5191 25.3472 16.4453 25.0824 16.4252 24.8109C16.4051 24.5394 16.4391 24.2667 16.5253 24.0084C16.6114 23.7502 16.748 23.5117 16.9272 23.3066C17.1063 23.1016 17.3243 22.9342 17.5686 22.8142C17.813 22.6941 18.0787 22.6238 18.3504 22.6073C18.6222 22.5908 18.8945 22.6284 19.1516 22.718C19.4599 22.8208 26.7222 25.3512 26.7222 34.9444C26.7222 41.2509 22.9482 47.3641 22.3418 48.2994L16.2286 60.5279C16.0587 60.8704 15.7963 61.1586 15.4712 61.3598C15.1461 61.5611 14.7712 61.6674 14.3888 61.6667Z" fill="#DD2E44"/>
<path d="M30.0357 28.0851C29.922 28.0856 29.8085 28.076 29.6965 28.0563L17.3632 26.0007C16.8254 25.9111 16.3452 25.6114 16.0283 25.1677C15.7115 24.724 15.5838 24.1726 15.6735 23.6348C15.7632 23.097 16.0628 22.6168 16.5065 22.3C16.9502 21.9831 17.5017 21.8554 18.0395 21.9451L30.3728 24.0007C30.8831 24.0838 31.3434 24.3561 31.6619 24.7635C31.9804 25.1709 32.1336 25.6833 32.0911 26.1986C32.0485 26.7139 31.8134 27.1943 31.4324 27.5439C31.0515 27.8936 30.5528 28.0868 30.0357 28.0851ZM54.2316 34.9445C54.1704 34.9444 54.1093 34.9403 54.0487 34.9321L42.3896 33.4768C42.0103 33.4453 41.6584 33.2664 41.4094 32.9786C41.1604 32.6908 41.0341 32.3169 41.0575 31.937C41.0809 31.5572 41.2521 31.2016 41.5346 30.9465C41.817 30.6914 42.1881 30.557 42.5684 30.5723C42.6527 30.5723 50.9284 30.5353 54.8791 27.9021C55.1322 27.7345 55.4311 27.6497 55.7345 27.6592C56.0379 27.6688 56.3309 27.7723 56.5729 27.9556C56.8132 28.1409 56.99 28.3963 57.0787 28.6865C57.1675 28.9767 57.1638 29.2873 57.0683 29.5753L55.6109 33.9475C55.5155 34.2379 55.3308 34.4907 55.083 34.6698C54.8353 34.8488 54.5373 34.945 54.2316 34.9445Z" fill="#292F33"/>
<path d="M41.1111 59.6111C41.1111 60.7014 40.678 61.7471 39.907 62.5181C39.136 63.2891 38.0904 63.7222 37 63.7222C35.9097 63.7222 34.864 63.2891 34.093 62.5181C33.3221 61.7471 32.8889 60.7014 32.8889 59.6111C32.8889 58.5208 33.3221 57.4751 34.093 56.7041C34.864 55.9331 35.9097 55.5 37 55.5C38.0904 55.5 39.136 55.9331 39.907 56.7041C40.678 57.4751 41.1111 58.5208 41.1111 59.6111Z" fill="#66757F"/>
</g>
<defs>
<clipPath id="clip0_309_93">
<rect width="74" height="74" fill="white"/>
</clipPath>
</defs>
</svg>
