<svg width="25" height="24" viewBox="0 0 25 24" fill="none" xmlns="http://www.w3.org/2000/svg">
<path d="M19.375 0H6.625C3.5184 0 1 2.5184 1 5.625V18.375C1 21.4816 3.5184 24 6.625 24H19.375C22.4816 24 25 21.4816 25 18.375V5.625C25 2.5184 22.4816 0 19.375 0Z" fill="url(#paint0_radial_69_768)"/>
<path d="M18.375 0H5.625C2.5184 0 0 2.5184 0 5.625V18.375C0 21.4816 2.5184 24 5.625 24H18.375C21.4816 24 24 21.4816 24 18.375V5.625C24 2.5184 21.4816 0 18.375 0Z" fill="url(#paint1_radial_69_768)"/>
<path d="M13.0008 2.625C10.4548 2.625 10.1352 2.63616 9.13525 2.68163C8.13719 2.72738 7.45591 2.88534 6.85984 3.11719C6.24316 3.35662 5.72013 3.67697 5.19906 4.19822C4.67753 4.71937 4.35719 5.24241 4.117 5.85881C3.8845 6.45506 3.72634 7.13662 3.68144 8.13422C3.63672 9.13425 3.625 9.45394 3.625 12.0001C3.625 14.5463 3.63625 14.8648 3.68163 15.8647C3.72756 16.8628 3.88553 17.5441 4.11719 18.1402C4.35681 18.7568 4.67716 19.2799 5.19841 19.8009C5.71938 20.3225 6.24241 20.6436 6.85862 20.883C7.45516 21.1148 8.13653 21.2728 9.13441 21.3186C10.1344 21.364 10.4538 21.3752 12.9997 21.3752C15.5461 21.3752 15.8646 21.364 16.8646 21.3186C17.8626 21.2728 18.5447 21.1148 19.1412 20.883C19.7576 20.6436 20.2799 20.3225 20.8007 19.8009C21.3223 19.2799 21.6425 18.7568 21.8828 18.1404C22.1133 17.5441 22.2715 16.8626 22.3184 15.8649C22.3633 14.865 22.375 14.5463 22.375 12.0001C22.375 9.45394 22.3633 9.13444 22.3184 8.13441C22.2715 7.13634 22.1133 6.45516 21.8828 5.85909C21.6425 5.24241 21.3223 4.71937 20.8007 4.19822C20.2793 3.67678 19.7578 3.35644 19.1406 3.11728C18.543 2.88534 17.8613 2.72728 16.8632 2.68163C15.8632 2.63616 15.5448 2.625 12.9979 2.625H13.0008ZM12.1598 4.31447C12.4095 4.31409 12.688 4.31447 13.0008 4.31447C15.5041 4.31447 15.8007 4.32347 16.7892 4.36838C17.7032 4.41019 18.1994 4.56291 18.5298 4.69125C18.9674 4.86112 19.2793 5.06428 19.6072 5.3925C19.9353 5.72062 20.1384 6.03309 20.3088 6.47062C20.4371 6.80062 20.59 7.29675 20.6316 8.21081C20.6765 9.19913 20.6863 9.49594 20.6863 11.9979C20.6863 14.4999 20.6765 14.7968 20.6316 15.7851C20.5898 16.6991 20.4371 17.1952 20.3088 17.5253C20.1389 17.9629 19.9353 18.2744 19.6072 18.6023C19.2791 18.9305 18.9676 19.1335 18.5298 19.3035C18.1997 19.4324 17.7032 19.5848 16.7892 19.6266C15.8009 19.6715 15.5041 19.6812 13.0008 19.6812C10.4975 19.6812 10.2008 19.6715 9.21259 19.6266C8.29853 19.5844 7.80241 19.4317 7.47166 19.3033C7.03422 19.1333 6.72166 18.9303 6.39353 18.6022C6.06541 18.274 5.86234 17.9623 5.692 17.5246C5.56366 17.1945 5.41075 16.6984 5.36913 15.7843C5.32422 14.796 5.31522 14.4992 5.31522 11.9956C5.31522 9.49209 5.32422 9.19678 5.36913 8.20847C5.41094 7.29441 5.56366 6.79828 5.692 6.46781C5.86197 6.03028 6.06541 5.71781 6.39363 5.38969C6.72175 5.06156 7.03422 4.85841 7.47175 4.68816C7.80222 4.55925 8.29853 4.40691 9.21259 4.36491C10.0774 4.32581 10.4126 4.31409 12.1598 4.31212V4.31447ZM18.0052 5.87109C17.3841 5.87109 16.8802 6.37453 16.8802 6.99572C16.8802 7.61681 17.3841 8.12072 18.0052 8.12072C18.6263 8.12072 19.1302 7.61681 19.1302 6.99572C19.1302 6.37463 18.6263 5.87072 18.0052 5.87072V5.87109ZM13.0008 7.18556C10.3421 7.18556 8.18641 9.34125 8.18641 12.0001C8.18641 14.6589 10.3421 16.8136 13.0008 16.8136C15.6597 16.8136 17.8146 14.6589 17.8146 12.0001C17.8146 9.34134 15.6595 7.18556 13.0007 7.18556H13.0008ZM13.0008 8.87503C14.7267 8.87503 16.1259 10.2741 16.1259 12.0001C16.1259 13.7259 14.7267 15.1252 13.0008 15.1252C11.2749 15.1252 9.87588 13.7259 9.87588 12.0001C9.87588 10.2741 11.2749 8.87503 13.0008 8.87503Z" fill="white"/>
<defs>
<radialGradient id="paint0_radial_69_768" cx="0" cy="0" r="1" gradientUnits="userSpaceOnUse" gradientTransform="translate(7.375 25.8485) rotate(-90) scale(23.7858 22.1227)">
<stop stop-color="#FFDD55"/>
<stop offset="0.1" stop-color="#FFDD55"/>
<stop offset="0.5" stop-color="#FF543E"/>
<stop offset="1" stop-color="#C837AB"/>
</radialGradient>
<radialGradient id="paint1_radial_69_768" cx="0" cy="0" r="1" gradientUnits="userSpaceOnUse" gradientTransform="translate(-4.02009 1.72884) rotate(78.681) scale(10.6324 43.827)">
<stop stop-color="#3771C8"/>
<stop offset="0.128" stop-color="#3771C8"/>
<stop offset="1" stop-color="#6600FF" stop-opacity="0"/>
</radialGradient>
</defs>
</svg>
