<svg width="198" height="44" viewBox="0 0 198 44" fill="none" xmlns="http://www.w3.org/2000/svg">
<rect x="1" y="1" width="196" height="42" stroke="black" strokeWidth="2"/>
<rect x="4" y="4" width="96.1943" height="35.3571" fill="#FF3230"/>
<path d="M38.6 17.1V31H36.32V24.92H29.78V31H27.5V17.1H29.78V23.06H36.32V17.1H38.6ZM47.9416 31.14C46.6482 31.14 45.4549 30.84 44.3616 30.24C43.2816 29.6267 42.4216 28.78 41.7816 27.7C41.1549 26.6067 40.8416 25.38 40.8416 24.02C40.8416 22.66 41.1549 21.44 41.7816 20.36C42.4216 19.28 43.2816 18.44 44.3616 17.84C45.4549 17.2267 46.6482 16.92 47.9416 16.92C49.2482 16.92 50.4416 17.2267 51.5216 17.84C52.6149 18.44 53.4749 19.28 54.1016 20.36C54.7282 21.44 55.0416 22.66 55.0416 24.02C55.0416 25.38 54.7282 26.6067 54.1016 27.7C53.4749 28.78 52.6149 29.6267 51.5216 30.24C50.4416 30.84 49.2482 31.14 47.9416 31.14ZM47.9416 29.16C48.8616 29.16 49.6816 28.9533 50.4016 28.54C51.1216 28.1133 51.6816 27.5133 52.0816 26.74C52.4949 25.9533 52.7016 25.0467 52.7016 24.02C52.7016 22.9933 52.4949 22.0933 52.0816 21.32C51.6816 20.5467 51.1216 19.9533 50.4016 19.54C49.6816 19.1267 48.8616 18.92 47.9416 18.92C47.0216 18.92 46.2016 19.1267 45.4816 19.54C44.7616 19.9533 44.1949 20.5467 43.7816 21.32C43.3816 22.0933 43.1816 22.9933 43.1816 24.02C43.1816 25.0467 43.3816 25.9533 43.7816 26.74C44.1949 27.5133 44.7616 28.1133 45.4816 28.54C46.2016 28.9533 47.0216 29.16 47.9416 29.16ZM67.0052 21.24C67.0052 21.9467 66.8385 22.6133 66.5052 23.24C66.1718 23.8667 65.6385 24.38 64.9052 24.78C64.1718 25.1667 63.2318 25.36 62.0852 25.36H59.5652V31H57.2852V17.1H62.0852C63.1518 17.1 64.0518 17.2867 64.7852 17.66C65.5318 18.02 66.0852 18.5133 66.4452 19.14C66.8185 19.7667 67.0052 20.4667 67.0052 21.24ZM62.0852 23.5C62.9518 23.5 63.5985 23.3067 64.0252 22.92C64.4518 22.52 64.6652 21.96 64.6652 21.24C64.6652 19.72 63.8052 18.96 62.0852 18.96H59.5652V23.5H62.0852ZM71.4597 18.94V23.02H76.2597V24.88H71.4597V29.14H76.8597V31H69.1797V17.08H76.8597V18.94H71.4597Z" fill="white"/>
<path d="M130.94 20.48C130.94 21.2933 130.753 22.04 130.38 22.72C130.007 23.3867 129.433 23.9267 128.66 24.34C127.887 24.7533 126.927 24.96 125.78 24.96H123.66V30H120.24V15.96H125.78C126.9 15.96 127.847 16.1533 128.62 16.54C129.393 16.9267 129.973 17.46 130.36 18.14C130.747 18.82 130.94 19.6 130.94 20.48ZM125.52 22.24C126.173 22.24 126.66 22.0867 126.98 21.78C127.3 21.4733 127.46 21.04 127.46 20.48C127.46 19.92 127.3 19.4867 126.98 19.18C126.66 18.8733 126.173 18.72 125.52 18.72H123.66V22.24H125.52ZM139.36 30.14C138.04 30.14 136.827 29.8333 135.72 29.22C134.627 28.6067 133.754 27.7533 133.1 26.66C132.46 25.5533 132.14 24.3133 132.14 22.94C132.14 21.5667 132.46 20.3333 133.1 19.24C133.754 18.1467 134.627 17.2933 135.72 16.68C136.827 16.0667 138.04 15.76 139.36 15.76C140.68 15.76 141.887 16.0667 142.98 16.68C144.087 17.2933 144.954 18.1467 145.58 19.24C146.22 20.3333 146.54 21.5667 146.54 22.94C146.54 24.3133 146.22 25.5533 145.58 26.66C144.94 27.7533 144.074 28.6067 142.98 29.22C141.887 29.8333 140.68 30.14 139.36 30.14ZM139.36 27.02C140.48 27.02 141.374 26.6467 142.04 25.9C142.72 25.1533 143.06 24.1667 143.06 22.94C143.06 21.7 142.72 20.7133 142.04 19.98C141.374 19.2333 140.48 18.86 139.36 18.86C138.227 18.86 137.32 19.2267 136.64 19.96C135.974 20.6933 135.64 21.6867 135.64 22.94C135.64 24.18 135.974 25.1733 136.64 25.92C137.32 26.6533 138.227 27.02 139.36 27.02ZM151.863 15.96V30H148.443V15.96H151.863ZM166.902 30H163.482L157.762 21.34V30H154.342V15.96H157.762L163.482 24.66V15.96H166.902V30ZM179.481 15.96V18.7H175.761V30H172.341V18.7H168.621V15.96H179.481Z" fill="black"/>
</svg>
