<svg width="74" height="74" viewBox="0 0 74 74" fill="none" xmlns="http://www.w3.org/2000/svg">
<g clip-path="url(#clip0_308_82)">
<path d="M40.1565 2.09277L2.4165 20.5928V53.7078L33.8434 71.9071L71.5834 50.875V17.7542L40.1565 2.09277Z" fill="#FCC21B"/>
<path d="M33.8434 73.6936C33.5312 73.6936 33.2248 73.6126 32.9415 73.4507L1.52045 55.2571C1.24892 55.1 1.02364 54.874 0.867329 54.602C0.711018 54.3299 0.629202 54.0215 0.630135 53.7078V20.5928C0.630135 19.9106 1.01748 19.2862 1.63029 18.9856L39.3703 0.485582C39.8733 0.236988 40.4572 0.242769 40.9601 0.491363L72.387 16.1528C72.6836 16.3023 72.9331 16.5311 73.1076 16.8138C73.2821 17.0965 73.3748 17.422 73.3756 17.7542V50.875C73.3756 51.5225 73.0229 52.1237 72.4564 52.4417L34.7164 73.4739C34.4447 73.6242 34.144 73.6936 33.8434 73.6936ZM4.20873 52.6787L33.8608 69.849L69.7912 49.8228V18.8642L40.1508 4.0873L4.20873 21.7085V52.6787Z" fill="#855C52"/>
<path d="M20.7662 37.399L15.4127 34.6239C14.3721 34.0805 13.3604 34.5025 13.1869 35.6125C12.9788 36.763 13.7188 38.0869 14.8173 38.6997L20.5118 41.6829C20.8298 41.8332 21.1535 41.9083 21.4483 41.9025C22.1421 41.8736 22.6162 41.3707 22.6508 40.5497C22.7144 39.3877 21.8935 38.0291 20.7662 37.399Z" fill="#855C52"/>
<path d="M21.1131 35.8495L15.1411 32.8433V27.7442L21.1131 30.8083V35.8495ZM21.1131 62.5415L15.1411 59.0786V53.9333L21.1131 57.5003V62.5415ZM56.876 12.4354L50.7247 9.3656L15.4533 26.8828L21.6103 30.0393L56.876 12.4354Z" fill="#B89278"/>
<path d="M33.8433 73.2773C33.6005 73.2773 33.3635 73.2137 33.1554 73.0923L1.7285 54.8929C1.52013 54.7714 1.34707 54.5976 1.22641 54.3888C1.10576 54.1799 1.04169 53.9432 1.04053 53.702V20.5928C1.04053 20.1129 1.28912 19.6735 1.69381 19.425C2.10428 19.1706 2.61303 19.1532 3.04084 19.3729L34.4677 35.4853C34.9244 35.7223 35.2135 36.1906 35.2135 36.7051V71.9129C35.2135 72.4043 34.9533 72.8553 34.5313 73.1039C34.3116 73.2195 34.0804 73.2773 33.8433 73.2773ZM3.7924 52.9157L32.4732 69.5253V37.5376L3.7924 22.8359V52.9157Z" fill="#855C52"/>
<path d="M33.8433 38.0753C33.6294 38.0753 33.4097 38.0233 33.2189 37.925L1.79201 21.8126C1.56526 21.6973 1.37527 21.5209 1.24349 21.3033C1.1117 21.0857 1.04338 20.8356 1.04623 20.5812C1.05201 20.0609 1.34685 19.5926 1.81513 19.3614L39.5551 0.861385C39.9367 0.670604 40.3876 0.676385 40.7692 0.861385L72.1961 16.5228C72.6644 16.754 72.9592 17.2281 72.9592 17.7484C72.9592 18.2687 72.6644 18.7428 72.2019 18.974L34.4619 37.925C34.2653 38.0233 34.0514 38.0753 33.8433 38.0753ZM5.48045 20.6159L33.849 35.1615L68.5134 17.76L40.1506 3.62482L5.48045 20.6159Z" fill="#855C52"/>
<path d="M33.8432 73.2773C33.6624 73.2777 33.4833 73.2424 33.3162 73.1734C33.1491 73.1044 32.9973 73.003 32.8694 72.8752C32.7416 72.7473 32.6403 72.5955 32.5712 72.4284C32.5022 72.2613 32.4669 72.0822 32.4673 71.9014V36.6936C32.4673 36.1733 32.7564 35.6992 33.2246 35.468L70.9646 16.5228C71.3867 16.3089 71.8954 16.332 72.3001 16.5806C72.7106 16.8292 72.9534 17.2744 72.9534 17.7484V50.875C72.9534 51.3722 72.6817 51.8347 72.2481 52.0775L34.5081 73.1097C34.2999 73.2195 34.0745 73.2773 33.8432 73.2773ZM35.2134 37.5492V69.5716L70.2073 50.0656V19.98L35.2134 37.5492Z" fill="#855C52"/>
</g>
<defs>
<clipPath id="clip0_308_82">
<rect width="74" height="74" fill="white"/>
</clipPath>
</defs>
</svg>
